#N canvas 290 160 952 618 10;
#X obj 61 393 dac~ 1 2 3 4 5 6 7 8;
#N canvas 120 72 577 696 slider 0;
#X obj 65 40 inlet;
#X obj 311 37 inlet;
#X obj 231 664 outlet~;
#X obj 117 327 osc~;
#X obj 132 251 random 2000;
#X obj 132 272 + 60;
#X obj 105 185 bng 15 250 50 0 empty empty empty 17 7 0 10 -262144
-1 -1;
#X obj 212 347 line~;
#X obj 288 281 random 5000;
#X obj 288 302 + 1000;
#X obj 282 246 t f b;
#X obj 290 340 list prepend;
#X msg 269 159 440;
#X msg 320 158 600;
#X obj 284 379 print;
#X obj 117 350 *~ 0.1;
#X obj 180 394 r volume;
#X connect 0 0 4 0;
#X connect 1 0 10 0;
#X connect 3 0 15 0;
#X connect 4 0 5 0;
#X connect 5 0 7 0;
#X connect 6 0 4 0;
#X connect 7 0 3 0;
#X connect 8 0 9 0;
#X connect 9 0 11 0;
#X connect 10 0 11 1;
#X connect 10 1 8 0;
#X connect 11 0 7 0;
#X connect 11 0 14 0;
#X connect 12 0 10 0;
#X connect 13 0 10 0;
#X connect 15 0 2 0;
#X connect 16 0 15 1;
#X restore 113 158 pd slider;
#N canvas 120 72 577 696 slider 0;
#X obj 65 40 inlet;
#X obj 311 37 inlet;
#X obj 231 664 outlet~;
#X obj 117 327 osc~;
#X obj 132 251 random 2000;
#X obj 132 272 + 60;
#X obj 105 185 bng 15 250 50 0 empty empty empty 17 7 0 10 -262144
-1 -1;
#X obj 212 347 line~;
#X obj 288 281 random 5000;
#X obj 288 302 + 1000;
#X obj 282 246 t f b;
#X obj 290 340 list prepend;
#X msg 269 159 440;
#X msg 320 158 600;
#X obj 284 379 print;
#X obj 117 350 *~ 0.1;
#X obj 190 404 r volume;
#X connect 0 0 4 0;
#X connect 1 0 10 0;
#X connect 3 0 15 0;
#X connect 4 0 5 0;
#X connect 5 0 7 0;
#X connect 6 0 4 0;
#X connect 7 0 3 0;
#X connect 8 0 9 0;
#X connect 9 0 11 0;
#X connect 10 0 11 1;
#X connect 10 1 8 0;
#X connect 11 0 7 0;
#X connect 11 0 14 0;
#X connect 12 0 10 0;
#X connect 13 0 10 0;
#X connect 15 0 2 0;
#X connect 16 0 15 1;
#X restore 123 182 pd slider;
#N canvas 120 72 577 696 slider 0;
#X obj 65 40 inlet;
#X obj 311 37 inlet;
#X obj 231 664 outlet~;
#X obj 117 327 osc~;
#X obj 132 251 random 2000;
#X obj 132 272 + 60;
#X obj 105 185 bng 15 250 50 0 empty empty empty 17 7 0 10 -262144
-1 -1;
#X obj 212 347 line~;
#X obj 288 281 random 5000;
#X obj 288 302 + 1000;
#X obj 282 246 t f b;
#X obj 290 340 list prepend;
#X msg 269 159 440;
#X msg 320 158 600;
#X obj 284 379 print;
#X obj 117 350 *~ 0.1;
#X obj 210 424 r volume;
#X connect 0 0 4 0;
#X connect 1 0 10 0;
#X connect 3 0 15 0;
#X connect 4 0 5 0;
#X connect 5 0 7 0;
#X connect 6 0 4 0;
#X connect 7 0 3 0;
#X connect 8 0 9 0;
#X connect 9 0 11 0;
#X connect 10 0 11 1;
#X connect 10 1 8 0;
#X connect 11 0 7 0;
#X connect 11 0 14 0;
#X connect 12 0 10 0;
#X connect 13 0 10 0;
#X connect 15 0 2 0;
#X connect 16 0 15 1;
#X restore 133 203 pd slider;
#N canvas 120 72 577 696 slider 0;
#X obj 65 40 inlet;
#X obj 311 37 inlet;
#X obj 231 664 outlet~;
#X obj 117 327 osc~;
#X obj 132 251 random 2000;
#X obj 132 272 + 60;
#X obj 105 185 bng 15 250 50 0 empty empty empty 17 7 0 10 -262144
-1 -1;
#X obj 212 347 line~;
#X obj 288 281 random 5000;
#X obj 288 302 + 1000;
#X obj 282 246 t f b;
#X obj 290 340 list prepend;
#X msg 269 159 440;
#X msg 320 158 600;
#X obj 284 379 print;
#X obj 117 350 *~ 0.1;
#X obj 200 414 r volume;
#X connect 0 0 4 0;
#X connect 1 0 10 0;
#X connect 3 0 15 0;
#X connect 4 0 5 0;
#X connect 5 0 7 0;
#X connect 6 0 4 0;
#X connect 7 0 3 0;
#X connect 8 0 9 0;
#X connect 9 0 11 0;
#X connect 10 0 11 1;
#X connect 10 1 8 0;
#X connect 11 0 7 0;
#X connect 11 0 14 0;
#X connect 12 0 10 0;
#X connect 13 0 10 0;
#X connect 15 0 2 0;
#X connect 16 0 15 1;
#X restore 125 225 pd slider;
#N canvas 120 72 577 696 slider 0;
#X obj 65 40 inlet;
#X obj 311 37 inlet;
#X obj 231 664 outlet~;
#X obj 117 327 osc~;
#X obj 132 251 random 2000;
#X obj 132 272 + 60;
#X obj 105 185 bng 15 250 50 0 empty empty empty 17 7 0 10 -262144
-1 -1;
#X obj 212 347 line~;
#X obj 288 281 random 5000;
#X obj 288 302 + 1000;
#X obj 282 246 t f b;
#X obj 290 340 list prepend;
#X msg 269 159 440;
#X msg 320 158 600;
#X obj 284 379 print;
#X obj 117 350 *~ 0.1;
#X obj 220 434 r volume;
#X connect 0 0 4 0;
#X connect 1 0 10 0;
#X connect 3 0 15 0;
#X connect 4 0 5 0;
#X connect 5 0 7 0;
#X connect 6 0 4 0;
#X connect 7 0 3 0;
#X connect 8 0 9 0;
#X connect 9 0 11 0;
#X connect 10 0 11 1;
#X connect 10 1 8 0;
#X connect 11 0 7 0;
#X connect 11 0 14 0;
#X connect 12 0 10 0;
#X connect 13 0 10 0;
#X connect 15 0 2 0;
#X connect 16 0 15 1;
#X restore 179 225 pd slider;
#N canvas 120 72 577 696 slider 0;
#X obj 65 40 inlet;
#X obj 311 37 inlet;
#X obj 231 664 outlet~;
#X obj 117 327 osc~;
#X obj 132 251 random 2000;
#X obj 132 272 + 60;
#X obj 105 185 bng 15 250 50 0 empty empty empty 17 7 0 10 -262144
-1 -1;
#X obj 212 347 line~;
#X obj 288 281 random 5000;
#X obj 288 302 + 1000;
#X obj 282 246 t f b;
#X obj 290 340 list prepend;
#X msg 269 159 440;
#X msg 320 158 600;
#X obj 284 379 print;
#X obj 117 350 *~ 0.1;
#X obj 230 444 r volume;
#X connect 0 0 4 0;
#X connect 1 0 10 0;
#X connect 3 0 15 0;
#X connect 4 0 5 0;
#X connect 5 0 7 0;
#X connect 6 0 4 0;
#X connect 7 0 3 0;
#X connect 8 0 9 0;
#X connect 9 0 11 0;
#X connect 10 0 11 1;
#X connect 10 1 8 0;
#X connect 11 0 7 0;
#X connect 11 0 14 0;
#X connect 12 0 10 0;
#X connect 13 0 10 0;
#X connect 15 0 2 0;
#X connect 16 0 15 1;
#X restore 178 246 pd slider;
#N canvas 120 72 577 696 slider 0;
#X obj 65 40 inlet;
#X obj 311 37 inlet;
#X obj 231 664 outlet~;
#X obj 117 327 osc~;
#X obj 132 251 random 2000;
#X obj 132 272 + 60;
#X obj 105 185 bng 15 250 50 0 empty empty empty 17 7 0 10 -262144
-1 -1;
#X obj 212 347 line~;
#X obj 288 281 random 5000;
#X obj 288 302 + 1000;
#X obj 282 246 t f b;
#X obj 290 340 list prepend;
#X msg 269 159 440;
#X msg 320 158 600;
#X obj 284 379 print;
#X obj 117 350 *~ 0.1;
#X obj 170 384 r volume;
#X connect 0 0 4 0;
#X connect 1 0 10 0;
#X connect 3 0 15 0;
#X connect 4 0 5 0;
#X connect 5 0 7 0;
#X connect 6 0 4 0;
#X connect 7 0 3 0;
#X connect 8 0 9 0;
#X connect 9 0 11 0;
#X connect 10 0 11 1;
#X connect 10 1 8 0;
#X connect 11 0 7 0;
#X connect 11 0 14 0;
#X connect 12 0 10 0;
#X connect 13 0 10 0;
#X connect 15 0 2 0;
#X connect 16 0 15 1;
#X restore 184 267 pd slider;
#N canvas 120 72 577 696 slider 0;
#X obj 65 40 inlet;
#X obj 311 37 inlet;
#X obj 231 664 outlet~;
#X obj 117 327 osc~;
#X obj 132 251 random 2000;
#X obj 132 272 + 60;
#X obj 117 350 *~ 0.2;
#X obj 105 185 bng 15 250 50 0 empty empty empty 17 7 0 10 -262144
-1 -1;
#X obj 212 347 line~;
#X obj 288 281 random 5000;
#X obj 288 302 + 1000;
#X obj 282 246 t f b;
#X obj 290 340 list prepend;
#X msg 269 159 440;
#X msg 320 158 600;
#X obj 284 379 print;
#X obj 240 454 r volume;
#X connect 0 0 4 0;
#X connect 1 0 11 0;
#X connect 3 0 6 0;
#X connect 4 0 5 0;
#X connect 5 0 8 0;
#X connect 6 0 2 0;
#X connect 7 0 4 0;
#X connect 8 0 3 0;
#X connect 9 0 10 0;
#X connect 10 0 12 0;
#X connect 11 0 12 1;
#X connect 11 1 9 0;
#X connect 12 0 8 0;
#X connect 12 0 15 0;
#X connect 13 0 11 0;
#X connect 14 0 11 0;
#X connect 16 0 6 1;
#X restore 207 293 pd slider;
#X obj 80 65 bng 15 250 50 0 empty empty empty 17 7 0 10 -262144 -1
-1;
#X obj 263 124 t f;
#X msg 253 55 220;
#X obj 236 21 loadbang;
#X msg 296 55 440;
#X msg 335 62 135;
#X obj 246 506 s volume;
#X msg 233 439 0.01;
#X msg 370 92 880;
#X msg 355 120 85;
#X obj 231 395 loadbang;
#X connect 1 0 0 0;
#X connect 2 0 0 1;
#X connect 3 0 0 2;
#X connect 4 0 0 3;
#X connect 5 0 0 4;
#X connect 6 0 0 5;
#X connect 7 0 0 6;
#X connect 8 0 0 7;
#X connect 9 0 1 0;
#X connect 9 0 2 0;
#X connect 9 0 3 0;
#X connect 9 0 4 0;
#X connect 9 0 5 0;
#X connect 9 0 6 0;
#X connect 9 0 7 0;
#X connect 9 0 8 0;
#X connect 10 0 1 1;
#X connect 10 0 2 1;
#X connect 10 0 3 1;
#X connect 10 0 4 1;
#X connect 10 0 5 1;
#X connect 10 0 6 1;
#X connect 10 0 7 1;
#X connect 10 0 8 1;
#X connect 11 0 10 0;
#X connect 12 0 11 0;
#X connect 13 0 10 0;
#X connect 14 0 10 0;
#X connect 16 0 15 0;
#X connect 17 0 10 0;
#X connect 18 0 10 0;
#X connect 19 0 16 0;
