#N canvas 66 87 453 723 10;
#X obj 39 617 outlet~;
#X obj 148 617 outlet~;
#X obj 251 617 outlet~;
#X obj 331 617 outlet~;
#X obj 27 61 inlet~;
#X obj 39 532 /~ 1.41421;
#X obj 131 61 inlet;
#X obj 304 61 inlet;
#X text 27 37 signal;
#X text 131 37 azimuth (theta);
#X text 304 37 elevation (phi);
#X text 39 642 W;
#X text 148 642 X;
#X text 251 642 Y;
#X text 331 642 Z;
#X obj 134 179 cos;
#X obj 209 182 sin;
#X obj 307 179 cos;
#X obj 336 179 sin;
#X obj 148 532 *~;
#X obj 250 532 *~;
#X obj 331 532 *~;
#X obj 219 64 loadbang;
#X obj 148 558 *~;
#X obj 250 558 *~;
#X obj 131 123 * 3.14159;
#X obj 304 120 * 1.57079;
#X obj 131 87 f \$1;
#X obj 304 87 f \$2;
#X obj 339 333 pack 0 10;
#X obj 339 357 line~;
#X obj 210 208 pack 0 10;
#X obj 134 208 pack 0 10;
#X obj 307 217 pack 0 10;
#X obj 307 240 line~;
#X obj 210 235 line~;
#X obj 134 230 line~;
#X connect 4 0 5 0;
#X connect 4 0 19 0;
#X connect 4 0 21 0;
#X connect 4 0 20 0;
#X connect 5 0 0 0;
#X connect 6 0 27 0;
#X connect 7 0 28 0;
#X connect 15 0 32 0;
#X connect 16 0 31 0;
#X connect 17 0 33 0;
#X connect 18 0 29 0;
#X connect 19 0 23 0;
#X connect 20 0 24 0;
#X connect 21 0 3 0;
#X connect 22 0 27 0;
#X connect 22 0 28 0;
#X connect 23 0 1 0;
#X connect 24 0 2 0;
#X connect 25 0 15 0;
#X connect 25 0 16 0;
#X connect 26 0 17 0;
#X connect 26 0 18 0;
#X connect 27 0 25 0;
#X connect 28 0 26 0;
#X connect 29 0 30 0;
#X connect 30 0 21 1;
#X connect 31 0 35 0;
#X connect 32 0 36 0;
#X connect 33 0 34 0;
#X connect 34 0 24 1;
#X connect 34 0 23 1;
#X connect 35 0 20 1;
#X connect 36 0 19 1;
