#N canvas 402 110 1205 620 10;
#X declare -path .;
#X obj 44 -43 declare -path .;
#X text 57 -68 Elevation and Azimuth are both measured from -1 to 1
;
#X obj 585 479 AmbiDecoderCube~;
#X obj 575 512 dac~ 1 2 3 4 5 6 7 8;
#X obj 546 -10 adc~ 1 2 3 4 5 6 7 8 9 10 11 12 13 14 15 16;
#X obj 642 42 monochannelstrip;
#X obj 94 42 monochannelstrip;
#X obj 230 42 monochannelstrip;
#X obj 367 42 monochannelstrip;
#X obj 504 42 monochannelstrip;
#X obj 780 42 monochannelstrip;
#X obj 920 42 monochannelstrip;
#X obj 1058 42 monochannelstrip;
#X connect 2 0 3 0;
#X connect 2 1 3 1;
#X connect 2 2 3 2;
#X connect 2 3 3 3;
#X connect 2 4 3 4;
#X connect 2 5 3 5;
#X connect 2 6 3 6;
#X connect 2 7 3 7;
#X connect 4 0 6 0;
#X connect 4 1 7 0;
#X connect 4 2 8 0;
#X connect 4 3 9 0;
#X connect 4 4 5 0;
#X connect 4 5 10 0;
#X connect 4 6 11 0;
#X connect 4 7 12 0;
#X connect 5 0 2 0;
#X connect 5 1 2 1;
#X connect 5 2 2 2;
#X connect 5 3 2 3;
#X connect 6 0 2 0;
#X connect 6 1 2 1;
#X connect 6 2 2 2;
#X connect 6 3 2 3;
#X connect 7 0 2 0;
#X connect 7 1 2 1;
#X connect 7 2 2 2;
#X connect 7 3 2 3;
#X connect 8 0 2 0;
#X connect 8 1 2 1;
#X connect 8 2 2 2;
#X connect 8 3 2 3;
#X connect 9 0 2 0;
#X connect 9 1 2 1;
#X connect 9 2 2 2;
#X connect 9 3 2 3;
#X connect 10 0 2 0;
#X connect 10 1 2 1;
#X connect 10 2 2 2;
#X connect 10 3 2 3;
#X connect 11 0 2 0;
#X connect 11 1 2 1;
#X connect 11 2 2 2;
#X connect 11 3 2 3;
#X connect 12 0 2 0;
#X connect 12 1 2 1;
#X connect 12 2 2 2;
#X connect 12 3 2 3;
