#N canvas 589 61 1205 620 10;
#X declare -path .;
#X obj 44 -43 declare -path .;
#X text 57 -68 Elevation and Azimuth are both measured from -1 to 1
;
#X obj 575 512 dac~ 1 2 3 4 5 6 7 8;
#X obj 544 -54 adc~ 1 2 3 4 5 6 7 8 9 10 11 12 13 14 15 16;
#X obj 90 41 monochannelstrip;
#N canvas 981 175 342 369 swirl 0;
#X floatatom 167 260 5 0 0 0 - - -;
#N canvas 570 280 517 582 phasor 0;
#X obj 237 34 inlet;
#X obj 65 112 tgl 15 0 empty empty empty 17 7 0 10 -262144 -1 -1 1
1;
#X obj 65 132 sel 1 0;
#X msg 65 154 bang;
#X msg 99 154 stop;
#X obj 28 193 t b;
#X obj 65 193 delay 100;
#X obj 115 109 /;
#X obj 64 29 inlet;
#X obj 64 452 outlet;
#X obj 65 82 > 0;
#X obj 64 54 t a a;
#X obj 100 302 + 1;
#X msg 81 273 0;
#X obj 65 301 f 0;
#X obj 100 390 sel 1;
#X obj 100 328 t a a;
#X obj 159 31 loadbang;
#X obj 159 54 f \$1;
#X obj 100 364 >= 1000;
#X msg 115 82 1 \$1;
#X obj 64 428 / 1000;
#X connect 0 0 13 0;
#X connect 1 0 2 0;
#X connect 2 0 3 0;
#X connect 2 1 4 0;
#X connect 3 0 6 0;
#X connect 4 0 6 0;
#X connect 5 0 6 0;
#X connect 6 0 5 0;
#X connect 6 0 14 0;
#X connect 7 0 6 1;
#X connect 8 0 11 0;
#X connect 10 0 1 0;
#X connect 11 0 10 0;
#X connect 11 1 20 0;
#X connect 12 0 16 0;
#X connect 13 0 14 1;
#X connect 14 0 12 0;
#X connect 14 0 21 0;
#X connect 15 0 13 0;
#X connect 16 0 19 0;
#X connect 16 1 14 1;
#X connect 17 0 18 0;
#X connect 18 0 11 0;
#X connect 19 0 15 0;
#X connect 20 0 7 0;
#X connect 21 0 9 0;
#X restore 172 153 pd phasor;
#X obj 168 222 - 1;
#X obj 169 193 * 2;
#X obj 117 259 outlet;
#X msg 173 119 0.02;
#X obj 129 55 loadbang;
#X connect 1 0 3 0;
#X connect 2 0 0 0;
#X connect 2 0 4 0;
#X connect 3 0 2 0;
#X connect 5 0 1 0;
#X connect 6 0 5 0;
#X restore 152 12 pd swirl;
#X obj 642 42 monochannelstrip;
#X obj 230 42 monochannelstrip;
#X obj 367 42 monochannelstrip;
#X obj 504 42 monochannelstrip;
#X obj 780 42 monochannelstrip;
#X obj 907 45 monochannelstrip;
#X obj 1058 42 monochannelstrip;
#N canvas 981 175 342 369 swirl 0;
#N canvas 570 280 517 582 phasor 0;
#X obj 237 34 inlet;
#X obj 65 112 tgl 15 0 empty empty empty 17 7 0 10 -262144 -1 -1 1
1;
#X obj 65 132 sel 1 0;
#X msg 65 154 bang;
#X msg 99 154 stop;
#X obj 28 193 t b;
#X obj 65 193 delay 100;
#X obj 115 109 /;
#X obj 64 29 inlet;
#X obj 64 452 outlet;
#X obj 65 82 > 0;
#X obj 64 54 t a a;
#X obj 100 302 + 1;
#X msg 81 273 0;
#X obj 65 301 f 0;
#X obj 100 390 sel 1;
#X obj 100 328 t a a;
#X obj 159 31 loadbang;
#X obj 159 54 f \$1;
#X obj 100 364 >= 1000;
#X msg 115 82 1 \$1;
#X obj 64 428 / 1000;
#X connect 0 0 13 0;
#X connect 1 0 2 0;
#X connect 2 0 3 0;
#X connect 2 1 4 0;
#X connect 3 0 6 0;
#X connect 4 0 6 0;
#X connect 5 0 6 0;
#X connect 6 0 5 0;
#X connect 6 0 14 0;
#X connect 7 0 6 1;
#X connect 8 0 11 0;
#X connect 10 0 1 0;
#X connect 11 0 10 0;
#X connect 11 1 20 0;
#X connect 12 0 16 0;
#X connect 13 0 14 1;
#X connect 14 0 12 0;
#X connect 14 0 21 0;
#X connect 15 0 13 0;
#X connect 16 0 19 0;
#X connect 16 1 14 1;
#X connect 17 0 18 0;
#X connect 18 0 11 0;
#X connect 19 0 15 0;
#X connect 20 0 7 0;
#X connect 21 0 9 0;
#X restore 172 153 pd phasor;
#X obj 168 222 - 1;
#X obj 169 193 * 2;
#X obj 148 299 outlet;
#X obj 129 55 loadbang;
#X obj 159 261 * -1;
#X msg 173 119 0.025;
#X connect 0 0 2 0;
#X connect 1 0 5 0;
#X connect 2 0 1 0;
#X connect 4 0 6 0;
#X connect 5 0 3 0;
#X connect 6 0 0 0;
#X restore 440 13 pd swirl;
#N canvas 981 175 342 369 swirl 0;
#X floatatom 167 260 5 0 0 0 - - -;
#N canvas 570 280 517 582 phasor 0;
#X obj 237 34 inlet;
#X obj 65 112 tgl 15 0 empty empty empty 17 7 0 10 -262144 -1 -1 1
1;
#X obj 65 132 sel 1 0;
#X msg 65 154 bang;
#X msg 99 154 stop;
#X obj 28 193 t b;
#X obj 65 193 delay 100;
#X obj 115 109 /;
#X obj 64 29 inlet;
#X obj 64 452 outlet;
#X obj 65 82 > 0;
#X obj 64 54 t a a;
#X obj 100 302 + 1;
#X msg 81 273 0;
#X obj 65 301 f 0;
#X obj 100 390 sel 1;
#X obj 100 328 t a a;
#X obj 159 31 loadbang;
#X obj 159 54 f \$1;
#X obj 100 364 >= 1000;
#X msg 115 82 1 \$1;
#X obj 64 428 / 1000;
#X connect 0 0 13 0;
#X connect 1 0 2 0;
#X connect 2 0 3 0;
#X connect 2 1 4 0;
#X connect 3 0 6 0;
#X connect 4 0 6 0;
#X connect 5 0 6 0;
#X connect 6 0 5 0;
#X connect 6 0 14 0;
#X connect 7 0 6 1;
#X connect 8 0 11 0;
#X connect 10 0 1 0;
#X connect 11 0 10 0;
#X connect 11 1 20 0;
#X connect 12 0 16 0;
#X connect 13 0 14 1;
#X connect 14 0 12 0;
#X connect 14 0 21 0;
#X connect 15 0 13 0;
#X connect 16 0 19 0;
#X connect 16 1 14 1;
#X connect 17 0 18 0;
#X connect 18 0 11 0;
#X connect 19 0 15 0;
#X connect 20 0 7 0;
#X connect 21 0 9 0;
#X restore 172 153 pd phasor;
#X obj 168 222 - 1;
#X obj 169 193 * 2;
#X obj 117 259 outlet;
#X obj 129 55 loadbang;
#X msg 173 119 0.03;
#X connect 1 0 3 0;
#X connect 2 0 0 0;
#X connect 2 0 4 0;
#X connect 3 0 2 0;
#X connect 5 0 6 0;
#X connect 6 0 1 0;
#X restore 686 16 pd swirl;
#X obj 200 -44 loadbang;
#X obj 1026 -32 loadbang;
#X text 956 468 fx 1;
#X text 1109 469 fx 2;
#N canvas 117 22 966 566 randomMove 0;
#X obj 240 393 - 1;
#X obj 240 368 * 2;
#X obj 240 442 outlet;
#X obj 240 420 * -1;
#X obj 306 139 random 10000;
#X obj 306 162 + 500;
#X obj 273 221 metro 2000;
#X obj 195 155 loadbang;
#X msg 202 184 1;
#X obj 273 247 bng 15 250 50 0 empty empty empty 17 7 0 10 -262144
-1 -1;
#X floatatom 361 189 5 0 0 0 - - -;
#X obj 322 351 line;
#X obj 322 280 random 1000;
#X obj 322 302 / 1000;
#X obj 322 325 pack 0 0;
#X obj 362 244 t b a;
#X connect 0 0 3 0;
#X connect 1 0 0 0;
#X connect 3 0 2 0;
#X connect 4 0 5 0;
#X connect 5 0 6 1;
#X connect 5 0 10 0;
#X connect 6 0 9 0;
#X connect 7 0 8 0;
#X connect 8 0 6 0;
#X connect 9 0 4 0;
#X connect 10 0 15 0;
#X connect 11 0 1 0;
#X connect 12 0 13 0;
#X connect 13 0 14 0;
#X connect 14 0 11 0;
#X connect 15 0 12 0;
#X connect 15 1 14 1;
#X restore 290 14 pd randomMove;
#N canvas 117 22 966 566 randomMove 0;
#X obj 240 393 - 1;
#X obj 240 368 * 2;
#X obj 240 442 outlet;
#X obj 240 420 * -1;
#X obj 273 221 metro 2000;
#X obj 195 155 loadbang;
#X msg 202 184 1;
#X obj 273 247 bng 15 250 50 0 empty empty empty 17 7 0 10 -262144
-1 -1;
#X floatatom 361 189 5 0 0 0 - - -;
#X obj 322 351 line;
#X obj 322 280 random 1000;
#X obj 322 302 / 1000;
#X obj 322 325 pack 0 0;
#X obj 362 244 t b a;
#X obj 306 139 random 2000;
#X obj 306 162 + 100;
#X connect 0 0 3 0;
#X connect 1 0 0 0;
#X connect 3 0 2 0;
#X connect 4 0 7 0;
#X connect 5 0 6 0;
#X connect 6 0 4 0;
#X connect 7 0 14 0;
#X connect 8 0 13 0;
#X connect 9 0 1 0;
#X connect 10 0 11 0;
#X connect 11 0 12 0;
#X connect 12 0 9 0;
#X connect 13 0 10 0;
#X connect 13 1 12 1;
#X connect 14 0 15 0;
#X connect 15 0 4 1;
#X connect 15 0 8 0;
#X restore 816 14 pd randomMove;
#N canvas 117 22 966 566 randomMove 0;
#X obj 240 393 - 1;
#X obj 240 368 * 2;
#X obj 240 442 outlet;
#X obj 240 420 * -1;
#X obj 306 139 random 10000;
#X obj 306 162 + 500;
#X obj 273 221 metro 2000;
#X obj 195 155 loadbang;
#X msg 202 184 1;
#X obj 273 247 bng 15 250 50 0 empty empty empty 17 7 0 10 -262144
-1 -1;
#X floatatom 361 189 5 0 0 0 - - -;
#X obj 322 351 line;
#X obj 322 280 random 1000;
#X obj 322 302 / 1000;
#X obj 322 325 pack 0 0;
#X obj 362 244 t b a;
#X connect 0 0 3 0;
#X connect 1 0 0 0;
#X connect 3 0 2 0;
#X connect 4 0 5 0;
#X connect 5 0 6 1;
#X connect 5 0 10 0;
#X connect 6 0 9 0;
#X connect 7 0 8 0;
#X connect 8 0 6 0;
#X connect 9 0 4 0;
#X connect 10 0 15 0;
#X connect 11 0 1 0;
#X connect 12 0 13 0;
#X connect 13 0 14 0;
#X connect 14 0 11 0;
#X connect 15 0 12 0;
#X connect 15 1 14 1;
#X restore 548 12 pd randomMove;
#N canvas 981 175 342 369 swirl 0;
#X floatatom 167 260 5 0 0 0 - - -;
#N canvas 570 280 517 582 phasor 0;
#X obj 237 34 inlet;
#X obj 65 112 tgl 15 0 empty empty empty 17 7 0 10 -262144 -1 -1 1
1;
#X obj 65 132 sel 1 0;
#X msg 65 154 bang;
#X msg 99 154 stop;
#X obj 28 193 t b;
#X obj 65 193 delay 100;
#X obj 115 109 /;
#X obj 64 29 inlet;
#X obj 64 452 outlet;
#X obj 65 82 > 0;
#X obj 64 54 t a a;
#X obj 100 302 + 1;
#X msg 81 273 0;
#X obj 65 301 f 0;
#X obj 100 390 sel 1;
#X obj 100 328 t a a;
#X obj 159 31 loadbang;
#X obj 159 54 f \$1;
#X obj 100 364 >= 1000;
#X msg 115 82 1 \$1;
#X obj 64 428 / 1000;
#X connect 0 0 13 0;
#X connect 1 0 2 0;
#X connect 2 0 3 0;
#X connect 2 1 4 0;
#X connect 3 0 6 0;
#X connect 4 0 6 0;
#X connect 5 0 6 0;
#X connect 6 0 5 0;
#X connect 6 0 14 0;
#X connect 7 0 6 1;
#X connect 8 0 11 0;
#X connect 10 0 1 0;
#X connect 11 0 10 0;
#X connect 11 1 20 0;
#X connect 12 0 16 0;
#X connect 13 0 14 1;
#X connect 14 0 12 0;
#X connect 14 0 21 0;
#X connect 15 0 13 0;
#X connect 16 0 19 0;
#X connect 16 1 14 1;
#X connect 17 0 18 0;
#X connect 18 0 11 0;
#X connect 19 0 15 0;
#X connect 20 0 7 0;
#X connect 21 0 9 0;
#X restore 172 153 pd phasor;
#X obj 168 222 - 1;
#X obj 169 193 * 2;
#X obj 117 259 outlet;
#X obj 129 55 loadbang;
#X msg 173 119 0.03;
#X connect 1 0 3 0;
#X connect 2 0 0 0;
#X connect 2 0 4 0;
#X connect 3 0 2 0;
#X connect 5 0 6 0;
#X connect 6 0 1 0;
#X restore 981 18 pd swirl;
#N canvas 117 22 966 566 randomMove 0;
#X obj 240 393 - 1;
#X obj 240 368 * 2;
#X obj 240 442 outlet;
#X obj 240 420 * -1;
#X obj 273 221 metro 2000;
#X obj 195 155 loadbang;
#X msg 202 184 1;
#X obj 273 247 bng 15 250 50 0 empty empty empty 17 7 0 10 -262144
-1 -1;
#X floatatom 361 189 5 0 0 0 - - -;
#X obj 322 351 line;
#X obj 322 280 random 1000;
#X obj 322 302 / 1000;
#X obj 322 325 pack 0 0;
#X obj 362 244 t b a;
#X obj 306 139 random 2000;
#X obj 306 162 + 100;
#X connect 0 0 3 0;
#X connect 1 0 0 0;
#X connect 3 0 2 0;
#X connect 4 0 7 0;
#X connect 5 0 6 0;
#X connect 6 0 4 0;
#X connect 7 0 14 0;
#X connect 8 0 13 0;
#X connect 9 0 1 0;
#X connect 10 0 11 0;
#X connect 11 0 12 0;
#X connect 12 0 9 0;
#X connect 13 0 10 0;
#X connect 13 1 12 1;
#X connect 14 0 15 0;
#X connect 15 0 4 1;
#X connect 15 0 8 0;
#X restore 1111 16 pd randomMove;
#X obj 585 479 AmbiDecoderHex~;
#X msg 1072 -5 0;
#X msg 1105 -5 0;
#X obj 37 -6 osc~ 440;
#X obj 23 127 osc~ 220;
#X msg 205 -15 80;
#X msg 1027 -12 80;
#X connect 3 0 4 0;
#X connect 3 1 7 0;
#X connect 3 2 8 0;
#X connect 3 3 9 0;
#X connect 3 4 6 0;
#X connect 3 5 10 0;
#X connect 3 6 11 0;
#X connect 3 7 12 0;
#X connect 4 0 24 0;
#X connect 4 1 24 1;
#X connect 4 2 24 2;
#X connect 4 3 24 3;
#X connect 5 0 4 5;
#X connect 6 0 24 0;
#X connect 6 1 24 1;
#X connect 6 2 24 2;
#X connect 6 3 24 3;
#X connect 7 0 24 0;
#X connect 7 1 24 1;
#X connect 7 2 24 2;
#X connect 7 3 24 3;
#X connect 8 0 24 0;
#X connect 8 1 24 1;
#X connect 8 2 24 2;
#X connect 8 3 24 3;
#X connect 9 0 24 0;
#X connect 9 1 24 1;
#X connect 9 2 24 2;
#X connect 9 3 24 3;
#X connect 10 0 24 0;
#X connect 10 1 24 1;
#X connect 10 2 24 2;
#X connect 10 3 24 3;
#X connect 11 0 24 0;
#X connect 11 1 24 1;
#X connect 11 2 24 2;
#X connect 11 3 24 3;
#X connect 12 0 24 0;
#X connect 12 1 24 1;
#X connect 12 2 24 2;
#X connect 12 3 24 3;
#X connect 13 0 8 5;
#X connect 14 0 6 5;
#X connect 15 0 29 0;
#X connect 16 0 30 0;
#X connect 16 0 25 0;
#X connect 16 0 26 0;
#X connect 19 0 7 5;
#X connect 20 0 10 5;
#X connect 21 0 9 5;
#X connect 22 0 11 5;
#X connect 23 0 12 5;
#X connect 24 0 2 0;
#X connect 24 1 2 1;
#X connect 24 2 2 2;
#X connect 24 3 2 3;
#X connect 24 4 2 4;
#X connect 24 5 2 5;
#X connect 24 6 2 6;
#X connect 24 7 2 7;
#X connect 25 0 11 6;
#X connect 26 0 12 6;
#X connect 29 0 7 1;
#X connect 29 0 4 1;
#X connect 29 0 8 1;
#X connect 29 0 9 1;
#X connect 30 0 11 1;
#X connect 30 0 12 1;
#X connect 30 0 10 1;
#X connect 30 0 6 1;
