#N canvas 539 56 1205 620 10;
#X declare -path .;
#X obj 44 -43 declare -path .;
#X text 57 -68 Elevation and Azimuth are both measured from -1 to 1
;
#X obj 585 479 AmbiDecoderCube~;
#X obj 575 512 dac~ 1 2 3 4 5 6 7 8;
#X obj 546 -10 adc~ 1 2 3 4 5 6 7 8 9 10 11 12 13 14 15 16;
#X obj 90 41 monochannelstrip;
#N canvas 981 175 342 369 swirl 0;
#X floatatom 167 260 5 0 0 0 - - -;
#N canvas 570 280 517 582 phasor 0;
#X obj 237 34 inlet;
#X obj 65 112 tgl 15 0 empty empty empty 17 7 0 10 -262144 -1 -1 1
1;
#X obj 65 132 sel 1 0;
#X msg 65 154 bang;
#X msg 99 154 stop;
#X obj 28 193 t b;
#X obj 65 193 delay 100;
#X obj 115 109 /;
#X obj 64 29 inlet;
#X obj 64 452 outlet;
#X obj 65 82 > 0;
#X obj 64 54 t a a;
#X obj 100 302 + 1;
#X msg 81 273 0;
#X obj 65 301 f 0;
#X obj 100 390 sel 1;
#X obj 100 328 t a a;
#X obj 159 31 loadbang;
#X obj 159 54 f \$1;
#X obj 100 364 >= 1000;
#X msg 115 82 1 \$1;
#X obj 64 428 / 1000;
#X connect 0 0 13 0;
#X connect 1 0 2 0;
#X connect 2 0 3 0;
#X connect 2 1 4 0;
#X connect 3 0 6 0;
#X connect 4 0 6 0;
#X connect 5 0 6 0;
#X connect 6 0 5 0;
#X connect 6 0 14 0;
#X connect 7 0 6 1;
#X connect 8 0 11 0;
#X connect 10 0 1 0;
#X connect 11 0 10 0;
#X connect 11 1 20 0;
#X connect 12 0 16 0;
#X connect 13 0 14 1;
#X connect 14 0 12 0;
#X connect 14 0 21 0;
#X connect 15 0 13 0;
#X connect 16 0 19 0;
#X connect 16 1 14 1;
#X connect 17 0 18 0;
#X connect 18 0 11 0;
#X connect 19 0 15 0;
#X connect 20 0 7 0;
#X connect 21 0 9 0;
#X restore 172 153 pd phasor;
#X obj 168 222 - 1;
#X obj 169 193 * 2;
#X obj 117 259 outlet;
#X msg 173 119 0.02;
#X obj 129 55 loadbang;
#X connect 1 0 3 0;
#X connect 2 0 0 0;
#X connect 2 0 4 0;
#X connect 3 0 2 0;
#X connect 5 0 1 0;
#X connect 6 0 5 0;
#X restore 152 12 pd swirl;
#X obj 642 42 monochannelstrip;
#X obj 230 42 monochannelstrip;
#X obj 367 42 monochannelstrip;
#X obj 504 42 monochannelstrip;
#X obj 780 42 monochannelstrip;
#X obj 919 45 monochannelstrip;
#X obj 1058 42 monochannelstrip;
#N canvas 981 175 342 369 swirl 0;
#N canvas 570 280 517 582 phasor 0;
#X obj 237 34 inlet;
#X obj 65 112 tgl 15 0 empty empty empty 17 7 0 10 -262144 -1 -1 1
1;
#X obj 65 132 sel 1 0;
#X msg 65 154 bang;
#X msg 99 154 stop;
#X obj 28 193 t b;
#X obj 65 193 delay 100;
#X obj 115 109 /;
#X obj 64 29 inlet;
#X obj 64 452 outlet;
#X obj 65 82 > 0;
#X obj 64 54 t a a;
#X obj 100 302 + 1;
#X msg 81 273 0;
#X obj 65 301 f 0;
#X obj 100 390 sel 1;
#X obj 100 328 t a a;
#X obj 159 31 loadbang;
#X obj 159 54 f \$1;
#X obj 100 364 >= 1000;
#X msg 115 82 1 \$1;
#X obj 64 428 / 1000;
#X connect 0 0 13 0;
#X connect 1 0 2 0;
#X connect 2 0 3 0;
#X connect 2 1 4 0;
#X connect 3 0 6 0;
#X connect 4 0 6 0;
#X connect 5 0 6 0;
#X connect 6 0 5 0;
#X connect 6 0 14 0;
#X connect 7 0 6 1;
#X connect 8 0 11 0;
#X connect 10 0 1 0;
#X connect 11 0 10 0;
#X connect 11 1 20 0;
#X connect 12 0 16 0;
#X connect 13 0 14 1;
#X connect 14 0 12 0;
#X connect 14 0 21 0;
#X connect 15 0 13 0;
#X connect 16 0 19 0;
#X connect 16 1 14 1;
#X connect 17 0 18 0;
#X connect 18 0 11 0;
#X connect 19 0 15 0;
#X connect 20 0 7 0;
#X connect 21 0 9 0;
#X restore 172 153 pd phasor;
#X obj 168 222 - 1;
#X obj 169 193 * 2;
#X obj 148 299 outlet;
#X obj 129 55 loadbang;
#X obj 159 261 * -1;
#X msg 173 119 0.025;
#X connect 0 0 2 0;
#X connect 1 0 5 0;
#X connect 2 0 1 0;
#X connect 4 0 6 0;
#X connect 5 0 3 0;
#X connect 6 0 0 0;
#X restore 273 10 pd swirl;
#N canvas 981 175 342 369 swirl 0;
#X floatatom 167 260 5 0 0 0 - - -;
#N canvas 570 280 517 582 phasor 0;
#X obj 237 34 inlet;
#X obj 65 112 tgl 15 0 empty empty empty 17 7 0 10 -262144 -1 -1 1
1;
#X obj 65 132 sel 1 0;
#X msg 65 154 bang;
#X msg 99 154 stop;
#X obj 28 193 t b;
#X obj 65 193 delay 100;
#X obj 115 109 /;
#X obj 64 29 inlet;
#X obj 64 452 outlet;
#X obj 65 82 > 0;
#X obj 64 54 t a a;
#X obj 100 302 + 1;
#X msg 81 273 0;
#X obj 65 301 f 0;
#X obj 100 390 sel 1;
#X obj 100 328 t a a;
#X obj 159 31 loadbang;
#X obj 159 54 f \$1;
#X obj 100 364 >= 1000;
#X msg 115 82 1 \$1;
#X obj 64 428 / 1000;
#X connect 0 0 13 0;
#X connect 1 0 2 0;
#X connect 2 0 3 0;
#X connect 2 1 4 0;
#X connect 3 0 6 0;
#X connect 4 0 6 0;
#X connect 5 0 6 0;
#X connect 6 0 5 0;
#X connect 6 0 14 0;
#X connect 7 0 6 1;
#X connect 8 0 11 0;
#X connect 10 0 1 0;
#X connect 11 0 10 0;
#X connect 11 1 20 0;
#X connect 12 0 16 0;
#X connect 13 0 14 1;
#X connect 14 0 12 0;
#X connect 14 0 21 0;
#X connect 15 0 13 0;
#X connect 16 0 19 0;
#X connect 16 1 14 1;
#X connect 17 0 18 0;
#X connect 18 0 11 0;
#X connect 19 0 15 0;
#X connect 20 0 7 0;
#X connect 21 0 9 0;
#X restore 172 153 pd phasor;
#X obj 168 222 - 1;
#X obj 169 193 * 2;
#X obj 117 259 outlet;
#X obj 129 55 loadbang;
#X msg 173 119 0.03;
#X connect 1 0 3 0;
#X connect 2 0 0 0;
#X connect 2 0 4 0;
#X connect 3 0 2 0;
#X connect 5 0 6 0;
#X connect 6 0 1 0;
#X restore 414 10 pd swirl;
#X obj 200 -44 loadbang;
#X msg 205 -15 90;
#X obj 1026 -32 loadbang;
#X msg 1027 -12 90;
#X text 956 468 fx 1;
#X text 1109 469 fx 2;
#X msg 982 -8 0;
#X msg 1072 -5 1;
#X msg 1105 -5 -1;
#X connect 2 0 3 0;
#X connect 2 1 3 1;
#X connect 2 2 3 2;
#X connect 2 3 3 3;
#X connect 2 4 3 4;
#X connect 2 5 3 5;
#X connect 2 6 3 6;
#X connect 2 7 3 7;
#X connect 4 0 5 0;
#X connect 4 1 8 0;
#X connect 4 2 9 0;
#X connect 4 3 10 0;
#X connect 4 4 7 0;
#X connect 4 5 11 0;
#X connect 4 6 12 0;
#X connect 4 7 13 0;
#X connect 5 0 2 0;
#X connect 5 1 2 1;
#X connect 5 2 2 2;
#X connect 5 3 2 3;
#X connect 6 0 5 5;
#X connect 7 0 2 0;
#X connect 7 1 2 1;
#X connect 7 2 2 2;
#X connect 7 3 2 3;
#X connect 8 0 2 0;
#X connect 8 1 2 1;
#X connect 8 2 2 2;
#X connect 8 3 2 3;
#X connect 9 0 2 0;
#X connect 9 1 2 1;
#X connect 9 2 2 2;
#X connect 9 3 2 3;
#X connect 10 0 2 0;
#X connect 10 1 2 1;
#X connect 10 2 2 2;
#X connect 10 3 2 3;
#X connect 11 0 2 0;
#X connect 11 1 2 1;
#X connect 11 2 2 2;
#X connect 11 3 2 3;
#X connect 12 0 2 0;
#X connect 12 1 2 1;
#X connect 12 2 2 2;
#X connect 12 3 2 3;
#X connect 13 0 2 0;
#X connect 13 1 2 1;
#X connect 13 2 2 2;
#X connect 13 3 2 3;
#X connect 14 0 8 5;
#X connect 15 0 9 5;
#X connect 16 0 17 0;
#X connect 17 0 8 1;
#X connect 17 0 5 1;
#X connect 17 0 9 1;
#X connect 18 0 19 0;
#X connect 18 0 22 0;
#X connect 18 0 23 0;
#X connect 18 0 24 0;
#X connect 19 0 12 1;
#X connect 19 0 13 1;
#X connect 22 0 12 5;
#X connect 22 0 13 5;
#X connect 23 0 12 6;
#X connect 24 0 13 6;
