#N canvas 634 36 936 504 10;
#X obj 615 49 inlet~;
#X obj 615 76 monovol 0;
#X obj 660 413 outlet~;
#X obj 737 412 outlet~;
#X obj 820 412 outlet~;
#X obj 105 115 vsl 35 240 0 100 0 0 empty empty empty 0 -9 0 10 -262144
-1 -1 0 1;
#X obj 155 115 vu 35 240 \$0-mainLevelReadout empty -1 -8 0 10 -66577
-1 1 0;
#X obj 660 374 monovol 0;
#X obj 737 373 monovol 0;
#X obj 820 368 monovol 0;
#X obj 604 302 s \$0-mainLevelReadout;
#X obj 604 253 env~ 128;
#X obj 604 278 - 100;
#X obj 582 412 outlet~;
#X obj 582 373 monovol 0;
#X obj 230 115 vsl 35 240 0 100 0 0 empty empty empty 0 -9 0 10 -262144
-1 -1 0 1;
#X obj 273 115 vsl 35 240 0 100 0 0 empty empty empty 0 -9 0 10 -262144
-1 -1 0 1;
#X obj 317 115 vsl 35 240 0 100 0 0 empty empty empty 0 -9 0 10 -262144
-1 -1 0 1;
#X obj 361 115 vsl 35 240 0 100 0 0 empty empty empty 0 -9 0 10 -262144
-1 -1 0 1;
#X connect 0 0 1 0;
#X connect 1 0 9 0;
#X connect 1 0 11 0;
#X connect 1 0 14 0;
#X connect 1 0 7 0;
#X connect 1 0 8 0;
#X connect 1 1 5 0;
#X connect 5 0 1 1;
#X connect 7 0 2 0;
#X connect 8 0 3 0;
#X connect 9 0 4 0;
#X connect 11 0 12 0;
#X connect 12 0 10 0;
#X connect 14 0 13 0;
#X connect 15 0 14 1;
#X connect 16 0 7 1;
#X connect 17 0 8 1;
#X connect 18 0 9 1;
#X coords 0 -1 1 1 300 270 1 100 100;
