#N canvas 0 22 788 541 10;
#X obj 35 289 AmbiDecoderCube~;
#X obj 25 365 dac~ 1 2 3 4 5 6 7 8;
#X obj 41 228 AmbiPanner~ -1 0;
#X obj 170 228 AmbiPanner~ -0.5 0;
#X obj 325 227 AmbiPanner~ 0 0;
#X obj 456 225 AmbiPanner~ 0.5 0;
#X obj 41 172 readsf~ 1;
#X obj 170 170 readsf~ 1;
#X obj 323 172 readsf~ 1;
#X obj 460 173 readsf~ 1;
#X msg 40 108 open a1.wav \, 0;
#X msg 170 108 open a2.wav \, 0;
#X msg 324 113 open a3.wav \, 0;
#X msg 466 109 open a4.wav \, 0;
#X msg 273 135 1;
#X obj 586 188 bng 15 250 50 0 empty empty empty 17 7 0 10 -262144
-1 -1;
#X obj 586 208 delay 1000;
#X obj 120 33 bng 15 250 50 0 empty empty empty 17 7 0 10 -262144 -1
-1;
#X connect 0 0 1 0;
#X connect 0 1 1 1;
#X connect 0 2 1 2;
#X connect 0 3 1 3;
#X connect 0 4 1 4;
#X connect 0 5 1 5;
#X connect 0 6 1 6;
#X connect 0 7 1 7;
#X connect 2 0 0 0;
#X connect 2 1 0 1;
#X connect 2 2 0 2;
#X connect 2 3 0 3;
#X connect 3 0 0 0;
#X connect 3 1 0 1;
#X connect 3 2 0 2;
#X connect 3 3 0 3;
#X connect 4 0 0 0;
#X connect 4 1 0 1;
#X connect 4 2 0 2;
#X connect 4 3 0 3;
#X connect 5 0 0 0;
#X connect 5 1 0 1;
#X connect 5 2 0 2;
#X connect 5 3 0 3;
#X connect 6 0 2 0;
#X connect 7 0 3 0;
#X connect 8 0 4 0;
#X connect 9 0 5 0;
#X connect 9 1 15 0;
#X connect 10 0 6 0;
#X connect 11 0 7 0;
#X connect 12 0 8 0;
#X connect 13 0 9 0;
#X connect 14 0 7 0;
#X connect 14 0 6 0;
#X connect 14 0 8 0;
#X connect 14 0 9 0;
#X connect 15 0 16 0;
#X connect 16 0 14 0;
#X connect 17 0 10 0;
#X connect 17 0 11 0;
#X connect 17 0 12 0;
#X connect 17 0 13 0;
