#N canvas 789 107 730 525 10;
#X obj 70 32 inlet~;
#X obj 75 442 outlet~;
#X obj 327 142 monovol 0;
#X obj 402 140 monovol 0;
#X text 472 145 pre fader sends;
#X text 155 228 main fader;
#X obj 487 312 monovol 0;
#X text 376 321 post fader sends;
#X obj 280 34 inlet;
#X obj 375 33 inlet;
#X obj 426 32 inlet;
#X obj 481 33 inlet;
#X obj 328 444 outlet~;
#X obj 405 443 outlet~;
#X obj 488 443 outlet~;
#X obj 74 221 stereovol 0;
#X obj 149 30 inlet~;
#X obj 140 440 outlet~;
#X text 81 8 L;
#X text 161 6 R;
#X text 280 9 fader;
#X text 377 7 pre1;
#X text 428 9 pre2;
#X text 482 8 post1;
#X text 78 466 L;
#X text 158 464 R;
#X text 329 465 pre1;
#X text 406 466 pre2;
#X text 488 466 post1;
#X connect 0 0 2 0;
#X connect 0 0 3 0;
#X connect 0 0 15 0;
#X connect 2 0 12 0;
#X connect 3 0 13 0;
#X connect 6 0 14 0;
#X connect 8 0 15 2;
#X connect 9 0 2 1;
#X connect 10 0 3 1;
#X connect 11 0 6 1;
#X connect 15 0 1 0;
#X connect 15 0 6 0;
#X connect 15 1 17 0;
#X connect 15 1 6 0;
#X connect 16 0 15 1;
#X connect 16 0 2 0;
#X connect 16 0 3 0;
